<svg xmlns="http://www.w3.org/2000/svg" xmlns:xlink="http://www.w3.org/1999/xlink" width="595" zoomAndPan="magnify" viewBox="0 0 446.25 117.749996" height="157" preserveAspectRatio="xMidYMid meet" version="1.0"><defs><clipPath id="90a5266c9f"><path d="M 0.0976562 0.0742188 L 181.960938 0.0742188 L 181.960938 116.078125 L 0.0976562 116.078125 Z M 0.0976562 0.0742188 " clip-rule="nonzero"/></clipPath></defs><path fill="#ffffff" d="M 386.921875 1.777344 L 286.988281 1.777344 C 255.757812 1.777344 230.207031 27.269531 230.207031 58.421875 C 230.207031 89.578125 255.757812 115.070312 286.988281 115.070312 L 386.921875 115.070312 C 418.152344 115.070312 443.703125 89.578125 443.703125 58.421875 C 443.703125 27.269531 418.152344 1.777344 386.921875 1.777344 Z M 386.921875 1.777344 " fill-opacity="1" fill-rule="nonzero"/><path fill="#3c4043" d="M 386.921875 6.367188 C 393.933594 6.367188 400.746094 7.753906 407.164062 10.472656 C 413.382812 13.109375 418.945312 16.875 423.773438 21.660156 C 428.570312 26.449219 432.347656 32.027344 434.984375 38.230469 C 437.710938 44.628906 439.101562 51.429688 439.101562 58.421875 C 439.101562 65.417969 437.710938 72.21875 434.984375 78.617188 C 432.347656 84.820312 428.570312 90.371094 423.773438 95.1875 C 418.972656 99.972656 413.382812 103.738281 407.164062 106.375 C 400.746094 109.09375 393.933594 110.480469 386.921875 110.480469 L 286.988281 110.480469 C 279.976562 110.480469 273.160156 109.09375 266.746094 106.375 C 260.527344 103.738281 254.964844 99.972656 250.136719 95.1875 C 245.339844 90.398438 241.5625 84.820312 238.921875 78.617188 C 236.195312 72.21875 234.804688 65.417969 234.804688 58.421875 C 234.804688 51.429688 236.195312 44.628906 238.921875 38.230469 C 241.5625 32.027344 245.339844 26.476562 250.136719 21.660156 C 254.933594 16.875 260.527344 13.109375 266.746094 10.472656 C 273.160156 7.753906 279.976562 6.367188 286.988281 6.367188 L 386.921875 6.367188 M 386.921875 1.777344 L 286.988281 1.777344 C 255.757812 1.777344 230.207031 27.269531 230.207031 58.421875 C 230.207031 89.578125 255.757812 115.070312 286.988281 115.070312 L 386.921875 115.070312 C 418.152344 115.070312 443.703125 89.578125 443.703125 58.421875 C 443.703125 27.269531 418.152344 1.777344 386.921875 1.777344 Z M 386.921875 1.777344 " fill-opacity="1" fill-rule="nonzero"/><path fill="#3c4043" d="M 332.015625 62.445312 L 332.015625 79.582031 L 326.5625 79.582031 L 326.5625 37.265625 L 341.015625 37.265625 C 344.675781 37.265625 347.800781 38.484375 350.355469 40.921875 C 352.964844 43.355469 354.273438 46.328125 354.273438 49.84375 C 354.273438 53.4375 352.964844 56.414062 350.355469 58.820312 C 347.828125 61.226562 344.703125 62.417969 341.015625 62.417969 L 332.015625 62.417969 Z M 332.015625 42.476562 L 332.015625 57.234375 L 341.128906 57.234375 C 343.285156 57.234375 345.101562 56.496094 346.523438 55.054688 C 347.96875 53.609375 348.707031 51.851562 348.707031 49.871094 C 348.707031 47.917969 347.96875 46.1875 346.523438 44.742188 C 345.101562 43.242188 343.3125 42.507812 341.128906 42.507812 L 332.015625 42.507812 Z M 332.015625 42.476562 " fill-opacity="1" fill-rule="nonzero"/><path fill="#3c4043" d="M 368.523438 49.671875 C 372.554688 49.671875 375.734375 50.75 378.0625 52.902344 C 380.390625 55.054688 381.554688 58 381.554688 61.738281 L 381.554688 79.582031 L 376.359375 79.582031 L 376.359375 75.558594 L 376.132812 75.558594 C 373.890625 78.871094 370.878906 80.515625 367.132812 80.515625 C 363.925781 80.515625 361.257812 79.582031 359.097656 77.683594 C 356.941406 75.785156 355.863281 73.433594 355.863281 70.601562 C 355.863281 67.601562 356.996094 65.222656 359.269531 63.464844 C 361.539062 61.679688 364.578125 60.804688 368.355469 60.804688 C 371.589844 60.804688 374.257812 61.398438 376.332031 62.585938 L 376.332031 61.339844 C 376.332031 59.445312 375.59375 57.855469 374.089844 56.527344 C 372.585938 55.195312 370.824219 54.542969 368.808594 54.542969 C 365.769531 54.542969 363.355469 55.816406 361.597656 58.394531 L 356.800781 55.394531 C 359.4375 51.570312 363.355469 49.671875 368.523438 49.671875 Z M 361.484375 70.6875 C 361.484375 72.105469 362.078125 73.292969 363.300781 74.226562 C 364.492188 75.164062 365.914062 75.644531 367.53125 75.644531 C 369.832031 75.644531 371.875 74.792969 373.664062 73.09375 C 375.453125 71.394531 376.359375 69.414062 376.359375 67.117188 C 374.65625 65.789062 372.300781 65.109375 369.261719 65.109375 C 367.046875 65.109375 365.203125 65.644531 363.726562 66.695312 C 362.222656 67.796875 361.484375 69.128906 361.484375 70.6875 Z M 361.484375 70.6875 " fill-opacity="1" fill-rule="nonzero"/><path fill="#3c4043" d="M 411.195312 50.605469 L 393.023438 92.296875 L 387.402344 92.296875 L 394.160156 77.710938 L 382.179688 50.605469 L 388.113281 50.605469 L 396.746094 71.394531 L 396.859375 71.394531 L 405.261719 50.605469 Z M 411.195312 50.605469 " fill-opacity="1" fill-rule="nonzero"/><path fill="#4285f4" d="M 310.332031 58.992188 C 310.332031 57.21875 310.171875 55.519531 309.878906 53.890625 L 287.03125 53.890625 L 287.03125 63.234375 L 300.1875 63.238281 C 299.65625 66.347656 297.9375 69 295.304688 70.765625 L 295.304688 76.832031 L 303.136719 76.832031 C 307.710938 72.609375 310.332031 66.367188 310.332031 58.992188 Z M 310.332031 58.992188 " fill-opacity="1" fill-rule="nonzero"/><path fill="#34a853" d="M 295.308594 70.765625 C 293.128906 72.234375 290.320312 73.09375 287.035156 73.09375 C 280.691406 73.09375 275.308594 68.828125 273.378906 63.078125 L 265.300781 63.078125 L 265.300781 69.332031 C 269.304688 77.253906 277.53125 82.695312 287.035156 82.695312 C 293.605469 82.695312 299.125 80.539062 303.140625 76.828125 Z M 295.308594 70.765625 " fill-opacity="1" fill-rule="nonzero"/><path fill="#fabb05" d="M 272.617188 58.4375 C 272.617188 56.824219 272.886719 55.261719 273.378906 53.796875 L 273.378906 47.542969 L 265.300781 47.542969 C 263.644531 50.820312 262.714844 54.519531 262.714844 58.4375 C 262.714844 62.359375 263.648438 66.058594 265.300781 69.332031 L 273.378906 63.078125 C 272.886719 61.613281 272.617188 60.050781 272.617188 58.4375 Z M 272.617188 58.4375 " fill-opacity="1" fill-rule="nonzero"/><path fill="#e94235" d="M 287.035156 43.78125 C 290.621094 43.78125 293.832031 45.011719 296.367188 47.421875 L 303.308594 40.5 C 299.09375 36.585938 293.597656 34.179688 287.035156 34.179688 C 277.535156 34.179688 269.304688 39.617188 265.300781 47.542969 L 273.378906 53.796875 C 275.308594 48.046875 280.691406 43.78125 287.035156 43.78125 Z M 287.035156 43.78125 " fill-opacity="1" fill-rule="nonzero"/><g clip-path="url(#90a5266c9f)"><path fill="#000000" d="M 165.484375 0.0742188 L 16.578125 0.0742188 C 15.957031 0.0742188 15.335938 0.0742188 14.714844 0.078125 C 14.191406 0.0820312 13.671875 0.0898438 13.148438 0.101562 C 12.011719 0.132812 10.863281 0.199219 9.738281 0.402344 C 8.59375 0.609375 7.53125 0.941406 6.496094 1.46875 C 5.476562 1.988281 4.542969 2.667969 3.734375 3.472656 C 2.925781 4.28125 2.246094 5.214844 1.726562 6.234375 C 1.199219 7.269531 0.863281 8.332031 0.660156 9.472656 C 0.457031 10.597656 0.390625 11.742188 0.359375 12.878906 C 0.34375 13.402344 0.339844 13.921875 0.335938 14.445312 C 0.332031 15.0625 0.332031 15.683594 0.332031 16.304688 L 0.332031 99.851562 C 0.332031 100.472656 0.332031 101.089844 0.335938 101.710938 C 0.339844 102.234375 0.34375 102.753906 0.359375 103.277344 C 0.390625 104.410156 0.457031 105.558594 0.660156 106.683594 C 0.863281 107.824219 1.199219 108.886719 1.726562 109.921875 C 2.246094 110.941406 2.925781 111.875 3.734375 112.679688 C 4.542969 113.492188 5.476562 114.167969 6.496094 114.683594 C 7.53125 115.214844 8.59375 115.546875 9.738281 115.753906 C 10.863281 115.953125 12.011719 116.023438 13.148438 116.054688 C 13.671875 116.066406 14.191406 116.074219 14.714844 116.074219 C 15.335938 116.078125 15.957031 116.078125 16.578125 116.078125 L 165.484375 116.078125 C 166.101562 116.078125 166.726562 116.078125 167.34375 116.074219 C 167.867188 116.074219 168.386719 116.066406 168.914062 116.054688 C 170.046875 116.023438 171.195312 115.953125 172.324219 115.753906 C 173.464844 115.546875 174.527344 115.214844 175.566406 114.683594 C 176.585938 114.167969 177.515625 113.492188 178.328125 112.679688 C 179.136719 111.875 179.8125 110.941406 180.332031 109.921875 C 180.863281 108.886719 181.199219 107.824219 181.402344 106.683594 C 181.605469 105.558594 181.667969 104.410156 181.699219 103.277344 C 181.714844 102.753906 181.722656 102.234375 181.722656 101.710938 C 181.730469 101.089844 181.730469 100.472656 181.730469 99.851562 L 181.730469 16.304688 C 181.730469 15.683594 181.730469 15.0625 181.722656 14.445312 C 181.722656 13.921875 181.714844 13.402344 181.699219 12.878906 C 181.667969 11.742188 181.605469 10.597656 181.402344 9.472656 C 181.199219 8.332031 180.863281 7.269531 180.332031 6.234375 C 179.8125 5.214844 179.136719 4.28125 178.328125 3.472656 C 177.515625 2.667969 176.585938 1.988281 175.566406 1.46875 C 174.527344 0.941406 173.464844 0.609375 172.324219 0.402344 C 171.195312 0.199219 170.046875 0.132812 168.914062 0.101562 C 168.386719 0.0898438 167.867188 0.0820312 167.34375 0.078125 C 166.726562 0.0742188 166.101562 0.0742188 165.484375 0.0742188 Z M 165.484375 0.0742188 " fill-opacity="1" fill-rule="nonzero"/></g><path fill="#ffffff" d="M 165.484375 3.941406 L 167.316406 3.945312 C 167.8125 3.949219 168.308594 3.953125 168.808594 3.96875 C 169.675781 3.992188 170.691406 4.039062 171.636719 4.207031 C 172.460938 4.355469 173.148438 4.582031 173.8125 4.917969 C 174.464844 5.25 175.066406 5.683594 175.585938 6.207031 C 176.113281 6.730469 176.546875 7.332031 176.886719 7.992188 C 177.21875 8.648438 177.445312 9.332031 177.589844 10.160156 C 177.761719 11.097656 177.808594 12.113281 177.832031 12.984375 C 177.84375 13.476562 177.851562 13.96875 177.855469 14.472656 C 177.859375 15.085938 177.859375 15.695312 177.859375 16.304688 L 177.859375 99.851562 C 177.859375 100.464844 177.859375 101.070312 177.855469 101.695312 C 177.851562 102.1875 177.84375 102.679688 177.832031 103.171875 C 177.808594 104.042969 177.761719 105.058594 177.589844 106.003906 C 177.445312 106.820312 177.21875 107.507812 176.882812 108.167969 C 176.546875 108.828125 176.113281 109.425781 175.589844 109.945312 C 175.0625 110.472656 174.46875 110.90625 173.804688 111.242188 C 173.148438 111.574219 172.460938 111.800781 171.644531 111.945312 C 170.679688 112.117188 169.621094 112.167969 168.824219 112.1875 C 168.324219 112.199219 167.824219 112.207031 167.3125 112.207031 C 166.703125 112.214844 166.09375 112.214844 165.484375 112.214844 L 16.578125 112.214844 C 16.570312 112.214844 16.5625 112.214844 16.550781 112.214844 C 15.949219 112.214844 15.347656 112.214844 14.734375 112.207031 C 14.234375 112.207031 13.734375 112.199219 13.253906 112.1875 C 12.4375 112.167969 11.378906 112.121094 10.421875 111.949219 C 9.601562 111.800781 8.910156 111.574219 8.246094 111.238281 C 7.589844 110.90625 6.996094 110.472656 6.46875 109.945312 C 5.945312 109.425781 5.511719 108.828125 5.175781 108.167969 C 4.839844 107.507812 4.617188 106.820312 4.46875 105.996094 C 4.296875 105.050781 4.25 104.039062 4.226562 103.171875 C 4.214844 102.675781 4.207031 102.183594 4.207031 101.691406 L 4.203125 100.234375 L 4.203125 15.921875 L 4.207031 14.46875 C 4.207031 13.972656 4.214844 13.480469 4.226562 12.984375 C 4.25 12.117188 4.296875 11.105469 4.46875 10.152344 C 4.617188 9.335938 4.839844 8.644531 5.179688 7.984375 C 5.511719 7.328125 5.945312 6.730469 6.472656 6.207031 C 6.992188 5.683594 7.59375 5.25 8.25 4.917969 C 8.910156 4.582031 9.601562 4.355469 10.421875 4.207031 C 11.367188 4.039062 12.382812 3.992188 13.253906 3.96875 C 13.75 3.953125 14.246094 3.949219 14.738281 3.945312 L 16.578125 3.941406 L 165.484375 3.941406 " fill-opacity="1" fill-rule="nonzero"/><path fill="#000000" d="M 49.851562 39.09375 C 51.40625 37.152344 52.460938 34.546875 52.179688 31.882812 C 49.90625 31.996094 47.132812 33.382812 45.527344 35.324219 C 44.085938 36.988281 42.808594 39.703125 43.140625 42.253906 C 45.691406 42.472656 48.242188 40.980469 49.851562 39.09375 " fill-opacity="1" fill-rule="nonzero"/><path fill="#000000" d="M 52.152344 42.75 C 48.445312 42.53125 45.292969 44.851562 43.523438 44.851562 C 41.753906 44.851562 39.042969 42.863281 36.109375 42.917969 C 32.296875 42.972656 28.753906 45.128906 26.820312 48.554688 C 22.835938 55.410156 25.769531 65.582031 29.640625 71.167969 C 31.519531 73.929688 33.789062 76.972656 36.773438 76.863281 C 39.597656 76.753906 40.703125 75.039062 44.132812 75.039062 C 47.558594 75.039062 48.558594 76.863281 51.542969 76.808594 C 54.640625 76.753906 56.578125 74.042969 58.460938 71.277344 C 60.617188 68.128906 61.5 65.085938 61.554688 64.921875 C 61.5 64.867188 55.582031 62.597656 55.527344 55.796875 C 55.472656 50.105469 60.171875 47.394531 60.394531 47.226562 C 57.738281 43.304688 53.589844 42.863281 52.152344 42.75 " fill-opacity="1" fill-rule="nonzero"/><path fill="#000000" d="M 84.425781 35.046875 C 92.480469 35.046875 98.089844 40.59375 98.089844 48.667969 C 98.089844 56.773438 92.367188 62.351562 84.222656 62.351562 L 75.304688 62.351562 L 75.304688 76.519531 L 68.859375 76.519531 L 68.859375 35.046875 Z M 75.304688 56.945312 L 82.699219 56.945312 C 88.308594 56.945312 91.503906 53.929688 91.503906 48.699219 C 91.503906 43.46875 88.308594 40.476562 82.726562 40.476562 L 75.304688 40.476562 Z M 75.304688 56.945312 " fill-opacity="1" fill-rule="nonzero"/><path fill="#000000" d="M 99.773438 67.925781 C 99.773438 62.636719 103.832031 59.390625 111.027344 58.988281 L 119.3125 58.5 L 119.3125 56.171875 C 119.3125 52.808594 117.039062 50.796875 113.242188 50.796875 C 109.644531 50.796875 107.398438 52.519531 106.851562 55.222656 L 100.984375 55.222656 C 101.328125 49.761719 105.988281 45.738281 113.472656 45.738281 C 120.808594 45.738281 125.496094 49.617188 125.496094 55.683594 L 125.496094 76.519531 L 119.542969 76.519531 L 119.542969 71.546875 L 119.398438 71.546875 C 117.644531 74.910156 113.816406 77.035156 109.847656 77.035156 C 103.917969 77.035156 99.773438 73.359375 99.773438 67.925781 Z M 119.3125 65.195312 L 119.3125 62.808594 L 111.859375 63.269531 C 108.148438 63.527344 106.046875 65.167969 106.046875 67.753906 C 106.046875 70.398438 108.234375 72.121094 111.570312 72.121094 C 115.917969 72.121094 119.3125 69.132812 119.3125 65.195312 Z M 119.3125 65.195312 " fill-opacity="1" fill-rule="nonzero"/><path fill="#000000" d="M 131.121094 87.640625 L 131.121094 82.613281 C 131.578125 82.726562 132.617188 82.726562 133.132812 82.726562 C 136.011719 82.726562 137.566406 81.519531 138.515625 78.417969 C 138.515625 78.359375 139.0625 76.578125 139.0625 76.546875 L 128.128906 46.285156 L 134.859375 46.285156 L 142.515625 70.886719 L 142.628906 70.886719 L 150.28125 46.285156 L 156.84375 46.285156 L 145.503906 78.101562 C 142.917969 85.429688 139.925781 87.785156 133.652344 87.785156 C 133.132812 87.785156 131.578125 87.726562 131.121094 87.640625 Z M 131.121094 87.640625 " fill-opacity="1" fill-rule="nonzero"/></svg>